<svg aria-hidden="true" style="position: absolute; width: 0; height: 0; overflow: hidden;" version="1.1" xmlns="http://www.w3.org/2000/svg" xmlns:xlink="http://www.w3.org/1999/xlink">
<defs>

<symbol id="star-outline" viewBox="0 0 48 48" fill="none">
<g clip-path="url(#clip0_228_4534)">
<path d="M25.3763 6.13948L29.732 16.5195C29.8374 16.7714 30.0096 16.9897 30.23 17.151C30.4504 17.3122 30.7106 17.4103 30.9826 17.4345L42.1313 18.3982C42.4271 18.422 42.7093 18.533 42.942 18.7172C43.1747 18.9013 43.3476 19.1504 43.4387 19.4328C43.5298 19.7152 43.5351 20.0183 43.4539 20.3038C43.3727 20.5892 43.2087 20.8442 42.9826 21.0364L34.5245 28.4145C34.3189 28.5951 34.166 28.828 34.0822 29.0884C33.9983 29.3489 33.9866 29.6272 34.0482 29.8939L36.5832 40.8701C36.6502 41.1568 36.6314 41.4568 36.529 41.7329C36.4267 42.0089 36.2454 42.2487 36.0077 42.4225C35.77 42.5962 35.4864 42.6961 35.1923 42.7098C34.8983 42.7235 34.6066 42.6504 34.3538 42.4995L24.7726 36.687C24.5398 36.5454 24.2726 36.4706 24.0001 36.4706C23.7276 36.4706 23.4604 36.5454 23.2276 36.687L13.6463 42.4995C13.3935 42.6504 13.1019 42.7235 12.8078 42.7098C12.5137 42.6961 12.2302 42.5962 11.9925 42.4225C11.7548 42.2487 11.5735 42.0089 11.4712 41.7329C11.3688 41.4568 11.35 41.1568 11.417 40.8701L13.952 29.8939C14.0136 29.6272 14.0018 29.3489 13.918 29.0884C13.8341 28.828 13.6813 28.5951 13.4757 28.4145L5.01759 21.0364C4.79146 20.8442 4.62743 20.5892 4.54624 20.3038C4.46505 20.0183 4.47036 19.7152 4.56149 19.4328C4.65262 19.1504 4.82548 18.9013 5.0582 18.7172C5.29091 18.533 5.57302 18.422 5.86884 18.3982L17.0176 17.4345C17.2896 17.4103 17.5498 17.3122 17.7702 17.151C17.9906 16.9897 18.1628 16.7714 18.2682 16.5195L22.6238 6.13948C22.7402 5.87112 22.9324 5.64262 23.177 5.48211C23.4215 5.3216 23.7076 5.23608 24.0001 5.23608C24.2926 5.23608 24.5787 5.3216 24.8232 5.48211C25.0677 5.64262 25.26 5.87112 25.3763 6.13948Z" stroke-width="1.5" stroke-linecap="round" stroke-linejoin="round"/>
</g>
<defs>
<clipPath id="clip0_228_4534">
<rect width="48" height="48" fill="none" transform="translate(0 0.720703)"/>
</clipPath>
</defs>
</symbol>

<symbol id="address-book-outline" viewBox="0 0 48 48" fill="none">
<g clip-path="url(#clip0_228_4532)">
<path d="M25.5 27.7207C28.8137 27.7207 31.5 25.0344 31.5 21.7207C31.5 18.407 28.8137 15.7207 25.5 15.7207C22.1863 15.7207 19.5 18.407 19.5 21.7207C19.5 25.0344 22.1863 27.7207 25.5 27.7207Z" stroke-width="1.5" stroke-linecap="round" stroke-linejoin="round"/>
<path d="M6 14.2207H10.5" stroke-width="1.5" stroke-linecap="round" stroke-linejoin="round"/>
<path d="M6 24.7207H10.5" stroke-width="1.5" stroke-linecap="round" stroke-linejoin="round"/>
<path d="M6 35.2207H10.5" stroke-width="1.5" stroke-linecap="round" stroke-linejoin="round"/>
<path d="M16.5 32.2207C17.5479 30.8235 18.9067 29.6895 20.4688 28.9084C22.031 28.1273 23.7535 27.7207 25.5 27.7207C27.2465 27.7207 28.969 28.1273 30.5312 28.9084C32.0933 29.6895 33.4521 30.8235 34.5 32.2207" stroke-width="1.5" stroke-linecap="round" stroke-linejoin="round"/>
<path d="M40.5 41.2207V8.2207C40.5 7.39228 39.8284 6.7207 39 6.7207L12 6.7207C11.1716 6.7207 10.5 7.39228 10.5 8.2207L10.5 41.2207C10.5 42.0491 11.1716 42.7207 12 42.7207H39C39.8284 42.7207 40.5 42.0491 40.5 41.2207Z" stroke-width="1.5" stroke-linecap="round" stroke-linejoin="round"/>
</g>
<defs>
<clipPath id="clip0_228_4532">
<rect width="48" height="48" fill="none" transform="translate(0 0.720703)"/>
</clipPath>
</defs>
</symbol>

<symbol id="house-line-outline" viewBox="0 0 48 48" fill="none">
<g clip-path="url(#clip0_228_4530)">
<path d="M40.5 41.2207V22.3844C40.5 22.1754 40.4563 21.9687 40.3717 21.7775C40.2871 21.5864 40.1635 21.415 40.0088 21.2744L25.0088 7.11068C24.7326 6.85929 24.3725 6.71997 23.9991 6.71997C23.6256 6.71997 23.2656 6.85929 22.9894 7.11068L7.98938 21.2744C7.83501 21.4152 7.71174 21.5866 7.62747 21.7777C7.5432 21.9689 7.49978 22.1755 7.5 22.3844V41.2207" stroke-width="1.5" stroke-linecap="round" stroke-linejoin="round"/>
<path d="M3 41.2207H45" stroke-width="1.5" stroke-linecap="round" stroke-linejoin="round"/>
<path d="M28.5 41.2207V30.7207C28.5 30.3229 28.342 29.9413 28.0607 29.66C27.7794 29.3787 27.3978 29.2207 27 29.2207H21C20.6022 29.2207 20.2206 29.3787 19.9393 29.66C19.658 29.9413 19.5 30.3229 19.5 30.7207V41.2207" stroke-width="1.5" stroke-linecap="round" stroke-linejoin="round"/>
</g>
<defs>
<clipPath id="clip0_228_4530">
<rect width="48" height="48" fill="none" transform="translate(0 0.720703)"/>
</clipPath>
</defs>
</symbol>

<symbol id="image-outline" viewBox="0 0 48 48" fill="none">
<g clip-path="url(#clip0_228_4528)">
<path d="M40.5 9.7207H7.5C6.67157 9.7207 6 10.3923 6 11.2207V38.2207C6 39.0491 6.67157 39.7207 7.5 39.7207H40.5C41.3284 39.7207 42 39.0491 42 38.2207V11.2207C42 10.3923 41.3284 9.7207 40.5 9.7207Z" stroke-width="1.5" stroke-linecap="round" stroke-linejoin="round"/>
<path d="M29.25 20.9707C30.0784 20.9707 30.75 20.2991 30.75 19.4707C30.75 18.6423 30.0784 17.9707 29.25 17.9707C28.4216 17.9707 27.75 18.6423 27.75 19.4707C27.75 20.2991 28.4216 20.9707 29.25 20.9707Z" fill="none"/>
<path d="M27.6206 31.4707L32.4375 26.6595C32.7188 26.3784 33.1001 26.2205 33.4978 26.2205C33.8954 26.2205 34.2768 26.3784 34.5581 26.6595L42 34.107" stroke-width="1.5" stroke-linecap="round" stroke-linejoin="round"/>
<path d="M6 32.3501L16.1887 22.1594C16.3281 22.02 16.4935 21.9093 16.6756 21.8339C16.8577 21.7584 17.0529 21.7195 17.25 21.7195C17.4471 21.7195 17.6423 21.7584 17.8244 21.8339C18.0065 21.9093 18.1719 22.02 18.3113 22.1594L35.8706 39.7207" stroke-width="1.5" stroke-linecap="round" stroke-linejoin="round"/>
</g>
<defs>
<clipPath id="clip0_228_4528">
<rect width="48" height="48" fill="none" transform="translate(0 0.720703)"/>
</clipPath>
</defs>
</symbol>

<symbol id="list-outline" viewBox="0 0 48 48" fill="none">
<g clip-path="url(#clip0_239_4966)">
<path d="M7.5 24.7207H40.5" stroke-width="1.5" stroke-linecap="round" stroke-linejoin="round"/>
<path d="M7.5 12.7207H40.5" stroke-width="1.5" stroke-linecap="round" stroke-linejoin="round"/>
<path d="M7.5 36.7207H40.5" stroke-width="1.5" stroke-linecap="round" stroke-linejoin="round"/>
</g>
<defs>
<clipPath id="clip0_239_4966">
<rect width="48" height="48" fill="none" transform="translate(0 0.720703)"/>
</clipPath>
</defs>
</symbol>

<symbol id="x-outline" viewBox="0 0 48 48" fill="none">
<g clip-path="url(#clip0_239_4968)">
<path d="M37.5 11.2207L10.5 38.2207" stroke-width="1.5" stroke-linecap="round" stroke-linejoin="round"/>
<path d="M37.5 38.2207L10.5 11.2207" stroke-width="1.5" stroke-linecap="round" stroke-linejoin="round"/>
</g>
<defs>
<clipPath id="clip0_239_4968">
<rect width="48" height="48" fill="none" transform="translate(0 0.720703)"/>
</clipPath>
</defs>
</symbol>

<symbol id="globe-outline" viewBox="0 0 48 48" fill="none">
<g clip-path="url(#clip0_129_3735)">
<path d="M24 42.4707C33.9411 42.4707 42 34.4118 42 24.4707C42 14.5296 33.9411 6.47069 24 6.47069C14.0589 6.47069 6 14.5296 6 24.4707C6 34.4118 14.0589 42.4707 24 42.4707Z" stroke-width="1.5" stroke-linecap="round" stroke-linejoin="round"/>
<path d="M16.5 24.4706C16.5 31.4943 18.9994 37.7681 22.9275 41.9999C23.064 42.1484 23.2297 42.2668 23.4143 42.3479C23.599 42.4289 23.7984 42.4708 24 42.4708C24.2016 42.4708 24.401 42.4289 24.5857 42.3479C24.7703 42.2668 24.936 42.1484 25.0725 41.9999C29.0006 37.7681 31.5 31.4943 31.5 24.4706C31.5 17.4468 29.0006 11.1731 25.0725 6.94118C24.936 6.79276 24.7703 6.67427 24.5857 6.59322C24.401 6.51217 24.2016 6.47032 24 6.47032C23.7984 6.47032 23.599 6.51217 23.4143 6.59322C23.2297 6.67427 23.064 6.79276 22.9275 6.94118C18.9994 11.1731 16.5 17.4468 16.5 24.4706Z" stroke-width="1.5" stroke-linecap="round" stroke-linejoin="round"/>
<path d="M7.02393 18.4707H40.9764" stroke-width="1.5" stroke-linecap="round" stroke-linejoin="round"/>
<path d="M7.02393 30.4707H40.9764" stroke-width="1.5" stroke-linecap="round" stroke-linejoin="round"/>
</g>
<defs>
<clipPath id="clip0_129_3735">
<rect width="48" height="48" fill="none" transform="translate(0 0.470688)"/>
</clipPath>
</defs>
</symbol>

<symbol id="trophy-outline" viewBox="0 0 48 48" fill="none">
<g clip-path="url(#clip0_129_3736)">
<path d="M18 42.4707H30" stroke-width="1.5" stroke-linecap="round" stroke-linejoin="round"/>
<path d="M24 34.9707V42.4707" stroke-width="1.5" stroke-linecap="round" stroke-linejoin="round"/>
<path d="M10.875 24.4707H9C7.4087 24.4707 5.88258 23.8385 4.75736 22.7133C3.63214 21.5881 3 20.062 3 18.4707V15.4707C3 15.0729 3.15804 14.6913 3.43934 14.41C3.72064 14.1287 4.10218 13.9707 4.5 13.9707H10.5" stroke-width="1.5" stroke-linecap="round" stroke-linejoin="round"/>
<path d="M37.125 24.4707H39C40.5913 24.4707 42.1174 23.8385 43.2426 22.7133C44.3679 21.5881 45 20.062 45 18.4707V15.4707C45 15.0729 44.842 14.6913 44.5607 14.41C44.2794 14.1287 43.8978 13.9707 43.5 13.9707H37.5" stroke-width="1.5" stroke-linecap="round" stroke-linejoin="round"/>
<path d="M12 9.47069H36C36.3978 9.47069 36.7794 9.62872 37.0607 9.91003C37.342 10.1913 37.5 10.5729 37.5 10.9707V21.3019C37.5 28.7457 31.5469 34.9144 24.1031 34.9707C22.3216 34.9843 20.555 34.6452 18.9052 33.9728C17.2554 33.3005 15.755 32.3082 14.4904 31.0533C13.2259 29.7983 12.2223 28.3055 11.5374 26.6608C10.8525 25.0162 10.4999 23.2522 10.5 21.4707V10.9707C10.5 10.5729 10.658 10.1913 10.9393 9.91003C11.2206 9.62872 11.6022 9.47069 12 9.47069Z" stroke-width="1.5" stroke-linecap="round" stroke-linejoin="round"/>
</g>
<defs>
<clipPath id="clip0_129_3736">
<rect width="48" height="48" fill="none" transform="translate(0 0.470688)"/>
</clipPath>
</defs>
</symbol>

<symbol id="map-pin-outline" viewBox="0 0 48 48" fill="none">
<g clip-path="url(#clip0_129_3741)">
<path d="M24 25.9707C27.3137 25.9707 30 23.2844 30 19.9707C30 16.657 27.3137 13.9707 24 13.9707C20.6863 13.9707 18 16.657 18 19.9707C18 23.2844 20.6863 25.9707 24 25.9707Z" stroke-width="1.5" stroke-linecap="round" stroke-linejoin="round"/>
<path d="M39 19.9707C39 33.4707 24 43.9707 24 43.9707C24 43.9707 9 33.4707 9 19.9707C9 15.9924 10.5804 12.1771 13.3934 9.36409C16.2064 6.55104 20.0218 4.97069 24 4.97069C27.9782 4.97069 31.7936 6.55104 34.6066 9.36409C37.4196 12.1771 39 15.9924 39 19.9707Z" stroke-width="1.5" stroke-linecap="round" stroke-linejoin="round"/>
</g>
<defs>
<clipPath id="clip0_129_3741">
<rect width="48" height="48" fill="none" transform="translate(0 0.470688)"/>
</clipPath>
</defs>
</symbol>

<symbol id="key-outline" viewBox="0 0 48 48" fill="none">
<g clip-path="url(#clip0_129_3759)">
<path d="M17.4694 23.5013C16.3108 20.6146 16.1845 17.4164 17.112 14.4473C18.0395 11.4783 19.9638 8.92065 22.5596 7.20681C25.1554 5.49296 28.2634 4.72808 31.3581 5.04149C34.4528 5.35489 37.3444 6.72736 39.5438 8.92684C41.7433 11.1263 43.1158 14.0179 43.4292 17.1126C43.7426 20.2073 42.9777 23.3153 41.2639 25.911C39.55 28.5068 36.9924 30.4312 34.0233 31.3587C31.0543 32.2862 27.8561 32.1599 24.9694 31.0013L22.5 33.4707H18V37.9707H13.5V42.4707H6V34.9707L17.4694 23.5013Z" stroke-width="1.5" stroke-linecap="round" stroke-linejoin="round"/>
<path d="M33.75 16.2207C34.5784 16.2207 35.25 15.5491 35.25 14.7207C35.25 13.8923 34.5784 13.2207 33.75 13.2207C32.9216 13.2207 32.25 13.8923 32.25 14.7207C32.25 15.5491 32.9216 16.2207 33.75 16.2207Z" fill="#none"/>
</g>
<defs>
<clipPath id="clip0_129_3759">
<rect width="48" height="48" fill="none" transform="translate(0 0.470688)"/>
</clipPath>
</defs>
</symbol>

<symbol id="chart-line-up-outline" viewBox="0 0 48 48" fill="none">
<g clip-path="url(#clip0_129_3758)">
<path d="M42 39.4707H6V9.47069" stroke-width="1.5" stroke-linecap="round" stroke-linejoin="round"/>
<path d="M37.5 13.9707L24 27.4707L18 21.4707L6 33.4707" stroke-width="1.5" stroke-linecap="round" stroke-linejoin="round"/>
<path d="M37.5 21.4707V13.9707H30" stroke-width="1.5" stroke-linecap="round" stroke-linejoin="round"/>
</g>
<defs>
<clipPath id="clip0_129_3758">
<rect width="48" height="48" fill="none" transform="translate(0 0.470688)"/>
</clipPath>
</defs>
</symbol>

<symbol id="lock-key-outline" viewBox="0 0 48 48" fill="none">
<g clip-path="url(#clip0_129_3757)">
<path d="M39 16.9707H9C8.17157 16.9707 7.5 17.6423 7.5 18.4707V39.4707C7.5 40.2991 8.17157 40.9707 9 40.9707H39C39.8284 40.9707 40.5 40.2991 40.5 39.4707V18.4707C40.5 17.6423 39.8284 16.9707 39 16.9707Z" stroke-width="1.5" stroke-linecap="round" stroke-linejoin="round"/>
<path d="M16.5 16.9707V10.9707C16.5 8.98156 17.2902 7.07391 18.6967 5.66739C20.1032 4.26086 22.0109 3.47069 24 3.47069C25.9891 3.47069 27.8968 4.26086 29.3033 5.66739C30.7098 7.07391 31.5 8.98156 31.5 10.9707V16.9707" stroke-width="1.5" stroke-linecap="round" stroke-linejoin="round"/>
<path d="M24 30.4707C26.0711 30.4707 27.75 28.7918 27.75 26.7207C27.75 24.6496 26.0711 22.9707 24 22.9707C21.9289 22.9707 20.25 24.6496 20.25 26.7207C20.25 28.7918 21.9289 30.4707 24 30.4707Z" stroke-width="1.5" stroke-linecap="round" stroke-linejoin="round"/>
<path d="M24 30.4707V34.9707" stroke-width="1.5" stroke-linecap="round" stroke-linejoin="round"/>
</g>
<defs>
<clipPath id="clip0_129_3757">
<rect width="48" height="48" fill="white" transform="translate(0 0.470688)"/>
</clipPath>
</defs>
</symbol>

<symbol id="heart" viewBox="0 0 48 48">
<g clip-path="url(#clip0_183_3652)">
<path d="M45 18.0957C45 31.2207 25.5394 41.8444 24.7106 42.2832C24.4922 42.4007 24.248 42.4622 24 42.4622C23.752 42.4622 23.5078 42.4007 23.2894 42.2832C22.4606 41.8444 3 31.2207 3 18.0957C3.00347 15.0136 4.22936 12.0588 6.40872 9.87941C8.58808 7.70005 11.5429 6.47416 14.625 6.47069C18.4969 6.47069 21.8869 8.13569 24 10.9501C26.1131 8.13569 29.5031 6.47069 33.375 6.47069C36.4571 6.47416 39.4119 7.70005 41.5913 9.87941C43.7706 12.0588 44.9965 15.0136 45 18.0957Z"/>
</g>
<defs>
<clipPath id="clip0_183_3652">
<rect width="48" height="48" fill="none" transform="translate(0 0.470688)"/>
</clipPath>
</defs>
</symbol>

<symbol id="heart-outline" viewBox="0 0 48 48" fill="none">
<g clip-path="url(#clip0_183_3654)">
<path d="M24 40.9707C24 40.9707 4.5 30.4707 4.5 18.0957C4.5 15.4104 5.56674 12.835 7.46554 10.9362C9.36435 9.03743 11.9397 7.97069 14.625 7.97069C18.8606 7.97069 22.4887 10.2788 24 13.9707C25.5113 10.2788 29.1394 7.97069 33.375 7.97069C36.0603 7.97069 38.6356 9.03743 40.5345 10.9362C42.4333 12.835 43.5 15.4104 43.5 18.0957C43.5 30.4707 24 40.9707 24 40.9707Z" stroke-width="1.5" stroke-linecap="round" stroke-linejoin="round"/>
</g>
<defs>
<clipPath id="clip0_183_3654">
<rect width="48" height="48" fill="none" transform="translate(0 0.470688)"/>
</clipPath>
</defs>
</symbol>

<symbol id="person-outline" viewBox="0 0 48 48" fill="none">
<g clip-path="url(#clip0_182_3529)">
<path d="M24 12.4707C26.4853 12.4707 28.5 10.456 28.5 7.97069C28.5 5.48541 26.4853 3.47069 24 3.47069C21.5147 3.47069 19.5 5.48541 19.5 7.97069C19.5 10.456 21.5147 12.4707 24 12.4707Z" stroke-width="1.5" stroke-linecap="round" stroke-linejoin="round"/>
<path d="M27.9693 15.4707C28.6078 15.4708 29.239 15.6068 29.8209 15.8696C30.4028 16.1324 30.9221 16.5161 31.3443 16.9951L39.8418 26.6288C40.0511 26.8381 40.2171 27.0866 40.3304 27.36C40.4436 27.6335 40.5019 27.9266 40.5019 28.2226C40.5019 28.5185 40.4436 28.8116 40.3304 29.0851C40.2171 29.3586 40.0511 29.607 39.8418 29.8163C39.6325 30.0256 39.384 30.1916 39.1106 30.3049C38.8371 30.4182 38.544 30.4765 38.248 30.4765C37.9521 30.4765 37.659 30.4182 37.3855 30.3049C37.1121 30.1916 36.8636 30.0256 36.6543 29.8163L29.9999 24.4707L34.288 40.7701C34.5301 41.3094 34.5503 41.9223 34.3441 42.4763C34.1379 43.0304 33.7219 43.481 33.1861 43.7308C32.6503 43.9806 32.0377 44.0095 31.4808 43.8112C30.9239 43.613 30.4673 43.2035 30.2099 42.6713L23.9999 31.9707L17.7899 42.6713C17.5325 43.2035 17.076 43.613 16.519 43.8112C15.9621 44.0095 15.3495 43.9806 14.8137 43.7308C14.2779 43.481 13.862 43.0304 13.6558 42.4763C13.4496 41.9223 13.4697 41.3094 13.7118 40.7701L17.9999 24.4707L11.3418 29.8126C10.9191 30.2353 10.3458 30.4727 9.74804 30.4727C9.15027 30.4727 8.57698 30.2353 8.15429 29.8126C7.7316 29.3899 7.49414 28.8166 7.49414 28.2188C7.49414 27.621 7.7316 27.0478 8.15429 26.6251L16.6555 16.9951C17.0778 16.5161 17.5971 16.1324 18.179 15.8696C18.7609 15.6068 19.392 15.4708 20.0305 15.4707H27.9693Z" stroke-width="1.5" stroke-linecap="round" stroke-linejoin="round"/>
</g>
<defs>
<clipPath id="clip0_182_3529">
<rect width="48" height="48" fill="none" transform="translate(0 0.470688)"/>
</clipPath>
</defs>
</symbol>

<symbol id="frame-corners-outline" viewBox="0 0 48 48" fill="none">
<g clip-path="url(#clip0_182_3530)">
<path d="M30 15.4707H36V21.4707" stroke-width="1.5" stroke-linecap="round" stroke-linejoin="round"/>
<path d="M18 33.4707H12V27.4707" stroke-width="1.5" stroke-linecap="round" stroke-linejoin="round"/>
<path d="M40.5 9.47069H7.5C6.67157 9.47069 6 10.1423 6 10.9707V37.9707C6 38.7991 6.67157 39.4707 7.5 39.4707H40.5C41.3284 39.4707 42 38.7991 42 37.9707V10.9707C42 10.1423 41.3284 9.47069 40.5 9.47069Z" stroke-width="1.5" stroke-linecap="round" stroke-linejoin="round"/>
</g>
<defs>
<clipPath id="clip0_182_3530">
<rect width="48" height="48" fill="none" transform="translate(0 0.470688)"/>
</clipPath>
</defs>
</symbol>

<symbol id="currency-circle-dollar-outline" viewBox="0 0 48 48" fill="none">
<g clip-path="url(#clip0_182_3531)">
<path d="M24 13.9707V16.9707" stroke-width="1.5" stroke-linecap="round" stroke-linejoin="round"/>
<path d="M24 31.9707V34.9707" stroke-width="1.5" stroke-linecap="round" stroke-linejoin="round"/>
<path d="M24 42.4707C33.9411 42.4707 42 34.4118 42 24.4707C42 14.5296 33.9411 6.47069 24 6.47069C14.0589 6.47069 6 14.5296 6 24.4707C6 34.4118 14.0589 42.4707 24 42.4707Z" stroke-width="1.5" stroke-linecap="round" stroke-linejoin="round"/>
<path d="M19.5 31.9707H26.25C27.2446 31.9707 28.1984 31.5756 28.9017 30.8723C29.6049 30.1691 30 29.2152 30 28.2207C30 27.2261 29.6049 26.2723 28.9017 25.569C28.1984 24.8658 27.2446 24.4707 26.25 24.4707H21.75C20.7554 24.4707 19.8016 24.0756 19.0983 23.3723C18.3951 22.6691 18 21.7152 18 20.7207C18 19.7261 18.3951 18.7723 19.0983 18.069C19.8016 17.3658 20.7554 16.9707 21.75 16.9707H28.5" stroke-width="1.5" stroke-linecap="round" stroke-linejoin="round"/>
</g>
<defs>
<clipPath id="clip0_182_3531">
<rect width="48" height="48" fill="none" transform="translate(0 0.470688)"/>
</clipPath>
</defs>
</symbol>

<symbol id="spinner-outline" viewBox="0 0 48 48" fill="none">
<g clip-path="url(#clip0_492_10028)">
<path d="M24 6.22069V12.2207" stroke-width="1.5" stroke-linecap="round" stroke-linejoin="round"/>
<path d="M36.7275 11.4932L32.4844 15.7363" stroke-width="1.5" stroke-linecap="round" stroke-linejoin="round"/>
<path d="M42 24.2207H36" stroke-width="1.5" stroke-linecap="round" stroke-linejoin="round"/>
<path d="M36.7275 36.9482L32.4844 32.7051" stroke-width="1.5" stroke-linecap="round" stroke-linejoin="round"/>
<path d="M24 42.2207V36.2207" stroke-width="1.5" stroke-linecap="round" stroke-linejoin="round"/>
<path d="M11.2725 36.9482L15.5156 32.7051" stroke-width="1.5" stroke-linecap="round" stroke-linejoin="round"/>
<path d="M6 24.2207H12" stroke-width="1.5" stroke-linecap="round" stroke-linejoin="round"/>
<path d="M11.2725 11.4932L15.5156 15.7363" stroke-width="1.5" stroke-linecap="round" stroke-linejoin="round"/>
</g>
<defs>
<clipPath id="clip0_492_10028">
<rect width="48" height="48" fill="none" transform="translate(0 0.220688)"/>
</clipPath>
</defs>
</symbol>

<symbol id="warning-outline" viewBox="0 0 48 48" fill="none">
<g clip-path="url(#clip0_492_10092)">
<path d="M26.7018 7.76194L43.1006 36.2376C44.2499 38.2438 42.7649 40.7207 40.3987 40.7207H7.60119C5.23494 40.7207 3.74994 38.2438 4.89932 36.2376L21.2981 7.76194C22.4793 5.70694 25.5206 5.70694 26.7018 7.76194Z" stroke-width="1.5" stroke-linecap="round" stroke-linejoin="round"/>
<path d="M24 27.2207V19.7207" stroke-width="1.5" stroke-linecap="round" stroke-linejoin="round"/>
<path d="M24 35.4707C24.8284 35.4707 25.5 34.7991 25.5 33.9707C25.5 33.1423 24.8284 32.4707 24 32.4707C23.1716 32.4707 22.5 33.1423 22.5 33.9707C22.5 34.7991 23.1716 35.4707 24 35.4707Z" fill="none"/>
</g>
<defs>
<clipPath id="clip0_492_10092">
<rect width="48" height="48" fill="none" transform="translate(0 0.220688)"/>
</clipPath>
</defs>
</symbol>

<symbol id="smiley-outline" viewBox="0 0 48 48" fill="none">
<g clip-path="url(#clip0_492_10117)">
<path d="M31.5 28.7207C29.9437 31.4113 27.3319 33.2207 24 33.2207C20.6681 33.2207 18.0563 31.4113 16.5 28.7207" stroke-width="1.5" stroke-linecap="round" stroke-linejoin="round"/>
<path d="M24 42.2207C33.9411 42.2207 42 34.1618 42 24.2207C42 14.2796 33.9411 6.22069 24 6.22069C14.0589 6.22069 6 14.2796 6 24.2207C6 34.1618 14.0589 42.2207 24 42.2207Z" stroke-width="1.5" stroke-linecap="round" stroke-linejoin="round"/>
<path d="M17.25 21.9707C18.0784 21.9707 18.75 21.2991 18.75 20.4707C18.75 19.6423 18.0784 18.9707 17.25 18.9707C16.4216 18.9707 15.75 19.6423 15.75 20.4707C15.75 21.2991 16.4216 21.9707 17.25 21.9707Z" fill="none"/>
<path d="M30.75 21.9707C31.5784 21.9707 32.25 21.2991 32.25 20.4707C32.25 19.6423 31.5784 18.9707 30.75 18.9707C29.9216 18.9707 29.25 19.6423 29.25 20.4707C29.25 21.2991 29.9216 21.9707 30.75 21.9707Z" fill="none"/>
</g>
<defs>
<clipPath id="clip0_492_10117">
<rect width="48" height="48" fill="none" transform="translate(0 0.220688)"/>
</clipPath>
</defs>
</symbol>

<symbol id="smiley-sad-outline" viewBox="0 0 48 48" fill="none">
<g clip-path="url(#clip0_631_4374)">
<path d="M24 42.2207C33.9411 42.2207 42 34.1618 42 24.2207C42 14.2796 33.9411 6.22069 24 6.22069C14.0589 6.22069 6 14.2796 6 24.2207C6 34.1618 14.0589 42.2207 24 42.2207Z" stroke-width="1.5" stroke-linecap="round" stroke-linejoin="round"/>
<path d="M17.25 21.9707C18.0784 21.9707 18.75 21.2991 18.75 20.4707C18.75 19.6423 18.0784 18.9707 17.25 18.9707C16.4216 18.9707 15.75 19.6423 15.75 20.4707C15.75 21.2991 16.4216 21.9707 17.25 21.9707Z" fill="none"/>
<path d="M30.75 21.9707C31.5784 21.9707 32.25 21.2991 32.25 20.4707C32.25 19.6423 31.5784 18.9707 30.75 18.9707C29.9216 18.9707 29.25 19.6423 29.25 20.4707C29.25 21.2991 29.9216 21.9707 30.75 21.9707Z" fill="none"/>
<path d="M31.5 33.2207C29.9437 30.5301 27.3319 28.7207 24 28.7207C20.6681 28.7207 18.0563 30.5301 16.5 33.2207" stroke-width="1.5" stroke-linecap="round" stroke-linejoin="round"/>
</g>
<defs>
<clipPath id="clip0_631_4374">
<rect width="48" height="48" fill="none" transform="translate(0 0.220688)"/>
</clipPath>
</defs>
</symbol>

<symbol id="book-open-text-outline" viewBox="0 0 48 48" fill="none">
<g clip-path="url(#clip0_492_10053)">
<path d="M24 16.7207C24 15.1294 24.6321 13.6033 25.7574 12.478C26.8826 11.3528 28.4087 10.7207 30 10.7207H42C42.3978 10.7207 42.7794 10.8787 43.0607 11.16C43.342 11.4413 43.5 11.8229 43.5 12.2207V36.2207C43.5 36.6185 43.342 37 43.0607 37.2813C42.7794 37.5627 42.3978 37.7207 42 37.7207H30C28.4087 37.7207 26.8826 38.3528 25.7574 39.478C24.6321 40.6033 24 42.1294 24 43.7207" stroke-width="1.5" stroke-linecap="round" stroke-linejoin="round"/>
<path d="M4.5 36.2207C4.5 36.6185 4.65804 37 4.93934 37.2813C5.22064 37.5627 5.60218 37.7207 6 37.7207H18C19.5913 37.7207 21.1174 38.3528 22.2426 39.478C23.3679 40.6033 24 42.1294 24 43.7207V16.7207C24 15.1294 23.3679 13.6033 22.2426 12.478C21.1174 11.3528 19.5913 10.7207 18 10.7207H6C5.60218 10.7207 5.22064 10.8787 4.93934 11.16C4.65804 11.4413 4.5 11.8229 4.5 12.2207V36.2207Z" stroke-width="1.5" stroke-linecap="round" stroke-linejoin="round"/>
<path d="M30 18.2207H37.5" stroke-width="1.5" stroke-linecap="round" stroke-linejoin="round"/>
<path d="M30 24.2207H37.5" stroke-width="1.5" stroke-linecap="round" stroke-linejoin="round"/>
<path d="M30 30.2207H37.5" stroke-width="1.5" stroke-linecap="round" stroke-linejoin="round"/>
</g>
<defs>
<clipPath id="clip0_492_10053">
<rect width="48" height="48" fill="none" transform="translate(0 0.220688)"/>
</clipPath>
</defs>
</symbol>

<symbol id="caret-down-outline" viewBox="0 0 48 48" fill="none">
<g clip-path="url(#clip0_215_3908)">
<path d="M16.5 21.2207L24 28.7207L31.5 21.2207" stroke-width="1.5" stroke-linecap="round" stroke-linejoin="round"/>
</g>
<defs>
<clipPath id="clip0_215_3908">
<rect width="48" height="48" fill="none" transform="translate(0 0.220688)"/>
</clipPath>
</defs>
</symbol>

<symbol id="caret-up-outline" viewBox="0 0 48 48" fill="none">
<g clip-path="url(#clip0_215_3907)">
<path d="M16.5 27.2207L24 19.7207L31.5 27.2207" stroke-width="1.5" stroke-linecap="round" stroke-linejoin="round"/>
</g>
<defs>
<clipPath id="clip0_215_3907">
<rect width="48" height="48" fill="none" transform="translate(0 0.220688)"/>
</clipPath>
</defs>
</symbol>

<symbol id="envelope-outline" viewBox="0 0 48 48" fill="none">
<g clip-path="url(#clip0_561_5531)">
<path d="M42 10.7207L24 27.2207L6 10.7207" stroke-width="1.5" stroke-linecap="round" stroke-linejoin="round"/>
<path d="M6 10.7207H42V36.2207C42 36.6185 41.842 37 41.5607 37.2813C41.2794 37.5627 40.8978 37.7207 40.5 37.7207H7.5C7.10218 37.7207 6.72064 37.5627 6.43934 37.2813C6.15804 37 6 36.6185 6 36.2207V10.7207Z" stroke-width="1.5" stroke-linecap="round" stroke-linejoin="round"/>
<path d="M20.7281 24.2207L6.46313 37.2969" stroke-width="1.5" stroke-linecap="round" stroke-linejoin="round"/>
<path d="M41.537 37.2969L27.272 24.2207" stroke-width="1.5" stroke-linecap="round" stroke-linejoin="round"/>
</g>
<defs>
<clipPath id="clip0_561_5531">
<rect width="48" height="48" fill="none" transform="translate(0 0.220688)"/>
</clipPath>
</defs>
</symbol>

</defs>
</svg>